<svg xmlns="http://www.w3.org/2000/svg"><defs><font horiz-adv-x="545"><font-face font-family="Kafiyweoglqavllbijwnjrmasvt" font-weight="400" panose-1="2 11 5 4 3 1 1 2 1 2" ascent="760" descent="-240" x-height="480" cap-height="666" bbox="-32 -250 853 784" underline-thickness="60" underline-position="-75" unicode-range="U+000D-FB04"/><glyph glyph-name="space" horiz-adv-x="225"/><glyph glyph-name="exclam" unicode="!" horiz-adv-x="275" d="M137-8Q114-8 97 8.5T80 49q0 23 17 39.5t40 16.5 40-16.5T194 49q0-24-17-40.5T137-8zM92 666h90l-16-467h-58z"/><glyph glyph-name="quotedbl" unicode="&quot;" horiz-adv-x="327" d="M43 666h92l-11-222H66zm149 0h92l-23-222h-58z"/><glyph glyph-name="numbersign" unicode="#" horiz-adv-x="566" d="M150 218H21l9 56h128l21 135H49l9 56h129l31 201h56l-30-201h120l31 201h56l-30-201h123l-9-56H412l-20-135h124l-9-56H383L350 0h-56l33 218H206L173 0h-56zm185 56l21 135H235l-20-135h120z"/><glyph glyph-name="dollar" unicode="$" horiz-adv-x="499" d="M225-118v106q-37 1-66.5 8.5t-52 18-38 21.5T44 56l40 56q5-5 16.5-14.5T130 78t42-17 56-8v261q-2 2-4.5 2.5T219 319q-30 15-58 31.5t-49.5 38T77 439t-13 69q0 36 13 65t34.5 50 51 34 62.5 18v109h58V677q31-2 55.5-8t43-14 31-16 20.5-14l-38-58q-16 12-44 26.5T280 612V375q31-15 61.5-32.5t55-41.5 39.5-56.5 15-77.5q0-69-46-116T283-8v-110h-58zm148 284q0 45-27 73t-66 49V58q43 11 68 40.5t25 67.5zM140 512q0-22 6.5-39t18.5-30 28-23.5 35-19.5v210q-39-8-63.5-34T140 512z"/><glyph glyph-name="percent" unicode="%" horiz-adv-x="826" d="M205 342q-46 0-79 15.5T72 397t-30.5 53.5T32 509q0 28 9.5 57.5t30.5 54 53.5 40T203 676q46 0 79-15.5t54-39.5 30.5-53.5T376 510q0-29-9.5-59T336 397t-53.5-39.5T205 342zm0 54q49 0 78 32.5t29 80.5q0 49-29 81t-79 32-79-32-29-80q0-49 29-81.5t80-32.5zM623-7q-46 0-79 15.5T490 48t-30.5 53.5T450 160q0 28 9.5 57.5t30.5 54 53.5 40T621 327q46 0 79-15.5t54-39.5 30.5-53.5T794 161q0-29-9.5-59T754 48 700.5 8.5 623-7zm0 54q49 0 78 32.5t29 80.5q0 49-29 81t-79 32-79-32-29-80q0-49 29-81.5T623 47zm-31 619h69L234 0h-69z"/><glyph glyph-name="ampersand" unicode="&" horiz-adv-x="625" d="M261-12q-53 0-94 14.5T97 42t-44 58-15 70q0 31 8 56.5t25 48 43.5 43T177 358q-42 46-63 83.5T93 524q0 35 13 63.5t36.5 48.5 56 31 70.5 11q36 0 66-10.5t51.5-29 34-44.5 12.5-57q0-28-9-52t-27.5-46-46.5-43-67-43l175-186q40 64 55 151l70-12q-9-54-29.5-102T504 117L614 0h-98l-60 64q-41-36-90-56T261-12zm-17 406q62 35 88.5 68t26.5 73q0 33-24.5 57.5T268 617q-45 0-70.5-25T172 528q0-30 15.5-60t56.5-74zm19-340q45 0 81.5 15t66.5 42L217 315q-48-27-74.5-61T116 173q0-51 37.5-85T263 54z"/><glyph glyph-name="quotesingle" unicode="'" horiz-adv-x="187" d="M46 666h95l-18-222H64z"/><glyph glyph-name="parenleft" unicode="(" horiz-adv-x="309" d="M236-177Q149-83 102 34T55 280q0 63 13 124t36.5 117.5 57 107T236 720h70q-32-32-63-76.5t-56-100T146.5 422 131 281q0-140 46-252t129-206h-70z"/><glyph glyph-name="parenright" unicode=")" horiz-adv-x="309" d="M4-177q31 32 62.5 76.5T123-.5 163.5 121 179 262q0 140-46 252T4 720h70q87-94 134-211t47-246q0-64-13-125T205.5 20.5 148.5-86 74-177H4z"/><glyph glyph-name="asterisk" unicode="*" horiz-adv-x="454" d="M98 361l85 114-136 42 18 54 134-47-4 142h64l-4-142 134 47 19-54-137-42 85-114-46-34-83 119-83-119z"/><glyph glyph-name="plus" unicode="+" horiz-adv-x="580" d="M258 235H45v61h213v204h69V296h208v-61H327V20h-69v215z"/><glyph glyph-name="comma" unicode="," horiz-adv-x="220" d="M54-135q20 27 30.5 54.5T95-32q0 13-7 22.5T73 9 58 29t-7 29q0 23 16 38.5t40 15.5q27 0 46.5-20T173 34q0-40-18-84.5T105-135H54z"/><glyph glyph-name="hyphen" unicode="-" horiz-adv-x="309" d="M54 319h201v-64H54v64z"/><glyph glyph-name="period" unicode="." horiz-adv-x="220" d="M110-9Q84-9 66.5 8.5T49 52t17.5 43 43.5 17 43.5-17T171 52 153.5 8.5 110-9z"/><glyph glyph-name="slash" unicode="/" horiz-adv-x="402" d="M286 666h70L115 0H45z"/><glyph glyph-name="zero" unicode="0" d="M272-12q-61 0-103.5 31T100 99 62 209.5 50 333t11 124 37 111 68.5 79.5T271 678q61 0 103.5-31t69.5-80 39-111 12-123q0-62-12-123.5T444.5 99t-69-80T272-12zm-1 63q38 0 65.5 23t45 62 25.5 90 8 107-8 107-25.5 90-44.5 62-65 23-65.5-23-44.5-62-25-90-8-107 8-107 25-90 44-62 65-23z"/><glyph glyph-name="one" unicode="1" d="M87 66h166v531L91 543l-16 62 191 61h62V66h164V0H87v66z"/><glyph glyph-name="two" unicode="2" d="M68 43l62 62q35 35 69.5 72.5t67 77.5 57.5 80.5 40 80 15 76.5q0 62-34 91.5T263 613q-53 0-88-20t-61-46l-39 48q32 33 79 58t112 25q42 0 77.5-12t62-34.5 41-55T461 503q0-38-12.5-77t-34-77.5-50-76T304 199t-65-70-64-65q10 1 32.5 1.5t43.5.5h224V0H68v43z"/><glyph glyph-name="three" unicode="3" d="M201-12q-43 0-75.5 5T75 4l13 63q14-5 46-9.5t69-4.5q38 0 70.5 10T330 91t37.5 44 13.5 59q0 39-17.5 65.5T315 302t-72 23-87 7v54q38 0 74.5 9t65.5 26.5 47 43.5 18 59q0 45-33 66t-85 21q-48 0-83-16.5T100 556l-35 49q13 12 31.5 25t41.5 23.5 51 17.5 59 7q91 0 141.5-41T440 530q0-32-12.5-58T394 425.5t-48-35-55-22.5v-1q33-4 64-18t54.5-36 37.5-51.5 14-63.5q0-51-22-90.5t-58.5-66-83.5-40T201-12z"/><glyph glyph-name="four" unicode="4" d="M342 141H29v61l309 464h77V208h87v-67h-87V0h-73v141zm-156 67h156v352h-1L118 206z"/><glyph glyph-name="five" unicode="5" d="M175-12q-32 0-61 3.5T69-1l13 64q12-3 40-6.5t55-3.5q40 0 76.5 10T318 92.5t45 49 17 69.5q0 41-16 69t-44.5 45-66.5 24-81 7q-23 0-45.5-1T97 353l19 313h325v-66H185l-11-179q63 0 115.5-12t90.5-37 59-64 21-92q0-55-21.5-97.5T379 47 288.5 3 175-12z"/><glyph glyph-name="six" unicode="6" d="M278-12q-57 0-98.5 25.5t-68 66-39 90.5T60 270q0 93 25 168t73 128.5T276.5 649 439 678l14-59q-134 0-213.5-65T142 346q26 28 63.5 43t77.5 15q45 0 82-15t63.5-42 41-64.5T484 201t-14.5-83T428 50 363 4.5 278-12zm6 63q31 0 54 13t38 33.5 22.5 46.5 7.5 52q0 72-33.5 109T276 342q-45 0-77.5-14.5T137 285v-15q0-101 37.5-160T284 51z"/><glyph glyph-name="seven" unicode="7" d="M121 0l265 600H56v66h411v-54L191-24z"/><glyph glyph-name="eight" unicode="8" d="M270-12q-52 0-91 14.5T114.5 41t-38 55T64 161q0 35 14.5 64.5t36.5 53 47.5 41.5 47.5 30q-23 14-45.5 30T124 416t-29.5 45T83 518q0 35 15.5 64.5t42 50.5 61.5 33 74 12q42 0 76.5-11t59.5-31.5 38.5-49.5 13.5-64q0-33-13.5-58.5t-34-45.5-45-35-46.5-27q23-12 50-29.5t50.5-41 39-53.5 15.5-66q0-39-15.5-71.5T421 38 354.5 1 270-12zm2 65q58 0 93 32t35 82q0 28-14 51t-35 41.5-45.5 33.5-45.5 27q-17-12-37.5-26.5t-38-33-29.5-42-12-53.5q0-51 34-81.5T272 53zm2 334q19 11 39 24t36.5 29 27.5 35 11 42q0 42-30 69.5T277 614t-84-27-33-69q0-25 11-44.5t28-35.5 37-28.5 38-22.5z"/><glyph glyph-name="nine" unicode="9" d="M97 41q129 0 208 68t97 211q-26-28-63.5-43T261 262q-45 0-82.5 15T115 319t-40.5 64.5T60 465t14.5 83 41 68 64.5 45.5 86 16.5q58 0 99-24.5t67.5-64.5 39-90.5T484 396q0-92-23-168.5t-69-131T275.5 12 111-18zm171 283q48 0 79 14.5t60 42.5v15q0 101-36.5 160T262 615q-33 0-56.5-13T167 568.5 145 522t-7-52q0-72 32.5-109t97.5-37z"/><glyph glyph-name="colon" unicode=":" horiz-adv-x="225" d="M112-9Q86-9 68.5 9T51 53t17.5 43 43.5 17 43.5-17T173 53 155.5 9 112-9zm0 375q-26 0-43.5 17.5T51 427t17.5 43.5T112 488t43.5-17.5T173 427t-17.5-43.5T112 366z"/><glyph glyph-name="semicolon" unicode=";" horiz-adv-x="225" d="M57-135q19 26 30 53t11 50q0 13-7 22.5T76 9 61 29t-7 29q0 23 16 38.5t40 15.5q27 0 46.5-20T176 34q0-42-19-86.5T108-135H57zm55 501q-26 0-43.5 17.5T51 427t17.5 43.5T112 488t43.5-17.5T173 427t-17.5-43.5T112 366z"/><glyph glyph-name="less" unicode="<" horiz-adv-x="580" d="M124 246l250 222 41-42-200-177L415 73l-41-46z"/><glyph glyph-name="equal" unicode="=" horiz-adv-x="580" d="M95 216h389v-63H95v63zm0 163h389v-63H95v63z"/><glyph glyph-name="greater" unicode=">" horiz-adv-x="580" d="M164 69l200 177-200 176 41 46 250-219L205 27z"/><glyph glyph-name="question" unicode="?" horiz-adv-x="405" d="M108 256q0 39 14.5 66.5T182 377q20 12 37.5 23.5t30 26 20 33T277 504q0 57-33 83.5T154 614q-19 0-40.5-5.5T72 593l-27 58q27 14 56.5 20.5T159 678q48 0 85-13t61.5-35.5 37-53.5 12.5-68q0-39-13-68t-32-50-41-36-40-25q-30-18-40-35t-10-46v-55h-71v63zM145-8q-23 0-40 16.5T88 49q0 23 17 39.5t40 16.5 40-16.5T202 49q0-24-17-40.5T145-8z"/><glyph glyph-name="at" unicode="@" horiz-adv-x="765" d="M369-91q-77 0-138 26T127.5 6t-65 105.5T40 240q0 74 27 142.5t75.5 121 115 84T403 619t140-28.5 102.5-72 62.5-97T729 319q0-47-13-90t-36-75.5-55-51.5-70-19q-51 0-78 31.5T450 195h-2q-20-49-56.5-80.5T309 83q-23 0-40.5 10T239 119t-18 37-6 42q0 48 13 95.5t39.5 85.5 66.5 61.5 93 23.5q32 0 63.5-8t53.5-13l-25-139q-5-30-9.5-54t-4.5-41q0-29 15-49.5t38-20.5q25 0 46 14t36 37.5 23.5 55T672 312q0 55-21 101t-57.5 79.5T508 545t-105 19q-57 0-110.5-25.5t-95-69-66.5-102T106 243q0-60 18.5-110.5t53.5-88T264-14t116-21q44 0 84.5 9T529-6l23-51q-28-11-77-22.5T369-91zm-42 236q30 0 53.5 24t41.5 60 30.5 77.5T472 383l4 20q-4 1-11 3t-15 3.5-16 2.5-13 1q-30 0-55-17.5t-42-46-26.5-65T288 209q0-22 9-43t30-21z"/><glyph glyph-name="A" unicode="A" horiz-adv-x="627" d="M437 231l-84 228q-16 42-24.5 67T312 574h-2q-8-25-17.5-51T269 459l-85-228h253zM276 666h76L608 0h-85l-61 165H159L98 0H21z"/><glyph glyph-name="B" unicode="B" horiz-adv-x="572" d="M96 666h176q46 0 86-9t69.5-29 46-51.5T490 500q0-59-32-96t-87-51v-2q31-5 58-18.5t47-34.5 31.5-49 11.5-62q0-51-18-86.5t-51-58T371 10 269 0H96v666zM267 65q89 0 130 28.5t41 91.5q0 30-8.5 54t-28 41.5-51 26.5-77.5 9H173V65h94zm-3 315q77 0 111.5 28t34.5 87q0 56-36.5 81T266 601h-93V380h91z"/><glyph glyph-name="C" unicode="C" horiz-adv-x="615" d="M378-12q-78 0-138.5 29t-102 77-63 110.5T53 335q0 67 22 129.5T139 574t102.5 75.5T379 678q64 0 107-13.5t80-36.5l-39-59q-29 20-65.5 32T377 613q-60 0-105.5-23T196 529t-45.5-88T135 337q0-55 15-106t45.5-90.5 76.5-63T380 54q54 0 94 16t69 41l36-56q-13-12-33-24T500.5 9.5 444-6t-66-6z"/><glyph glyph-name="D" unicode="D" horiz-adv-x="679" d="M96 666h156q98 0 169.5-24T539 575.5 607 473t22-132-22.5-134.5-69-108-118.5-72T247 0H96v666zM254 64q145 0 219 69.5T547 339t-73 199.5T249 602h-75V64h80z"/><glyph glyph-name="E" unicode="E" horiz-adv-x="503" d="M96 666h342v-66H174V386h232v-66H174V66h271V0H96v666z"/><glyph glyph-name="F" unicode="F" horiz-adv-x="490" d="M96 666h349v-66H174V386h236v-66H174V0H96v666z"/><glyph glyph-name="G" unicode="G" horiz-adv-x="707" d="M384-12q-79 0-140.5 29t-104 77.5-64.5 111T53 335q0 68 22.5 130t65 109.5 105 75.5T388 678q66 0 117.5-15.5T598 615l-41-57q-39 31-78.5 43T386 613q-65 0-112.5-23T195 528.5t-45.5-88T135 337t15-105 45.5-90.5 78-63.5T386 54q55 0 97 11t68 30v187H408v66h221V57Q591 25 528.5 6.5T384-12z"/><glyph glyph-name="H" unicode="H" horiz-adv-x="725" d="M96 666h78V384h377v282h78V0h-78v318H174V0H96v666z"/><glyph glyph-name="I" unicode="I" horiz-adv-x="282" d="M102 666h78V0h-78v666z"/><glyph glyph-name="J" unicode="J" horiz-adv-x="283" d="M36-190q-21 0-36 3.5t-21 6.5l12 67q5-2 15-4.5t24-2.5q41 0 60 28.5T109-2v668h78V-14q0-85-38-130.5T36-190z"/><glyph glyph-name="K" unicode="K" horiz-adv-x="569" d="M176 347l268 319h91L267 352 553 0h-97zM96 666h77V0H96v666z"/><glyph glyph-name="L" unicode="L" horiz-adv-x="473" d="M96 666h78V66h262V0H96v666z"/><glyph glyph-name="M" unicode="M" horiz-adv-x="852" d="M145 666h73l165-453q15-42 24-68.5T425 90h2q8 27 17.5 54.5T469 213l165 453h74L798 0h-79l-57 436q-5 36-7 57t-4 36h-2q-5-17-12-38.5T619 437L461 0h-75L224 437q-12 32-19 53.5T192 529h-2q-2-18-4-39.5t-6-55.5L127 0H54z"/><glyph glyph-name="N" unicode="N" horiz-adv-x="711" d="M94 666h77l314-451q23-34 38-58.5t24-39.5h2q-1 10-2.5 31.5T545 207v459h72V0h-72L216 475q-15 21-29 45.5T164 561h-2q1-10 2.5-29.5T166 488V0H94v666z"/><glyph glyph-name="O" unicode="O" horiz-adv-x="760" d="M381-12q-77 0-138 28T140 91.5 75.5 201 53 332t22 131.5 64 110 102.5 76T379 678t138-28 103-75.5T684.5 465 707 334t-22-131.5-64-110-102.5-76T381-12zm-2 65q60 0 105.5 22.5t77 60.5 47.5 89 16 107-16 107-46.5 89.5-76 61.5T381 613t-105.5-22.5-77-61-47.5-89T135 334t16-107 46.5-89.5 76-61.5T379 53z"/><glyph glyph-name="P" unicode="P" horiz-adv-x="542" d="M96 666h167q50 0 93-12t74.5-36 49-60 17.5-84q0-99-64-152t-181-53h-78V0H96v666zm156-331q88 0 126.5 35T417 471q0 28-8.5 52t-28 41-50.5 26.5-75 9.5h-81V335h78z"/><glyph glyph-name="Q" unicode="Q" horiz-adv-x="760" d="M624-162q-34 0-65 7.5t-62 25T435-83t-65 71q-74 2-133 31T137 95 74.5 203 53 332q0 69 22 131.5t64 110 102.5 76T379 678t138-28 103-75.5T684.5 465 707 334q0-60-17-115.5T641 118t-78.5-77T456-4q37-47 74.5-70.5T625-98q29 0 50.5 10T706-70l29-58q-16-14-44.5-24T624-162zM379 53q60 0 105.5 22.5t77 60.5 47.5 89 16 107-16 107-46.5 89.5-76 61.5T381 613t-105.5-22.5-77-61-47.5-89T135 334t16-107 46.5-89.5 76-61.5T379 53z"/><glyph glyph-name="R" unicode="R" horiz-adv-x="570" d="M96 666h181q105 0 163-46t58-131q0-42-14.5-73.5t-39.5-53-59-33.5-74-14v-2q10-7 25.5-24.5T381 230L546 0h-92L320 189q-29 41-47.5 64.5T240 289t-26 15-29 3h-11V0H96v666zm178-295q75 0 109.5 30t34.5 86-36.5 84.5T268 600h-94V371h100z"/><glyph glyph-name="S" unicode="S" horiz-adv-x="499" d="M233-12q-38 0-69 7.5t-54.5 18-40 22T44 56l40 56q6-5 17.5-15T132 77t45-17 59-7q31 0 56 9.5t43 25 27.5 36T372 166q0 30-13 52.5t-34.5 40-49 32T219 319q-30 15-58 31.5t-49.5 38T77 439t-13 69q0 41 16 72.5t43 53.5 62 33 73 11q37 0 66-6t50.5-14 36-17.5T433 625l-38-58q-9 7-21.5 15t-30 15-39 11.5T257 613q-50 0-83-27.5T141 512q0-25 9.5-43.5t26-33.5 38-27 46.5-24q33-16 67-33.5t61-42 44.5-58.5 17.5-83q0-39-16-72t-44.5-57-69-37T233-12z"/><glyph glyph-name="T" unicode="T" horiz-adv-x="497" d="M209 600H20v66h457v-66H288V0h-79v600z"/><glyph glyph-name="U" unicode="U" horiz-adv-x="690" d="M348-12q-68 0-117 19t-80.5 53-46 82T90 249v417h78V259q0-104 44-154t138-50q90 0 133.5 53T527 245v421h73V253q0-61-15-110t-46-83.5-78.5-53T348-12z"/><glyph glyph-name="V" unicode="V" horiz-adv-x="616" d="M18 666h84l171-459q15-40 25-70.5T313 90h2q5 17 15 47t24 70l167 459h77L350 0h-76z"/><glyph glyph-name="W" unicode="W" horiz-adv-x="875" d="M21 666h85l113-445q4-18 8.5-38t7.5-36.5 5.5-28T243 105h2q0 2 3 13.5t7 28 9 36.5 10 38l128 445h80l126-442q6-20 10.5-40t8.5-36.5 6.5-27.5 2.5-13h2q0 2 2 13l5 27q3 17 7 37t9 40l115 442h77L670 0h-71L470 450q-6 20-11 41.5t-9 40.5-6.5 31.5T441 578h-2q0-2-3-14.5t-7.5-31-10.5-40-12-42.5L274 0h-71z"/><glyph glyph-name="X" unicode="X" horiz-adv-x="565" d="M236 345L36 666h89l161-258 152 258h82L325 345 540 0h-89L275 282 107 0H25z"/><glyph glyph-name="Y" unicode="Y" horiz-adv-x="555" d="M241 252L18 666h87l178-340h1l178 340h75L319 252V0h-78v252z"/><glyph glyph-name="Z" unicode="Z" horiz-adv-x="561" d="M46 55l364 547H63v64h439v-51L133 64h381V0H46v55z"/><glyph glyph-name="bracketleft" unicode="[" horiz-adv-x="306" d="M80 720h201v-57H151v-767h130v-57H80v881z"/><glyph glyph-name="backslash" unicode="\" horiz-adv-x="402" d="M7 720h70l318-881h-70z"/><glyph glyph-name="bracketright" unicode="]" horiz-adv-x="306" d="M25-104h130v767H25v57h201v-881H25v57z"/><glyph glyph-name="asciicircum" unicode="^" horiz-adv-x="584" d="M266 666h51l205-378h-66L292 589 128 288H61z"/><glyph glyph-name="underscore" unicode="_" horiz-adv-x="395" d="M-1-98h397v-61H-1v61z"/><glyph glyph-name="grave" unicode="`" horiz-adv-x="500" d="M149 666h109l92-126h-66z"/><glyph glyph-name="a" unicode="a" horiz-adv-x="472" d="M181-12q-60 0-98.5 35T44 117q0 48 23.5 79.5t61 50.5 82.5 27 89 8h21v45q0 54-23 77t-73 23q-33 0-63-11.5T100 375l-39 51q70 66 169 66 79 0 121.5-38.5T394 333V109q0-36 3-64t8-45h-73q-2 10-4 28.5T325 58q-24-30-61.5-50T181-12zm12 63q41 0 73 19t55 50v108h-21q-39 0-71.5-5.5t-56-18.5-37-34-13.5-51q0-19 7-32t17.5-21 23-11.5T193 51z"/><glyph glyph-name="b" unicode="b" horiz-adv-x="519" d="M237-12q-50 0-92 11T79 25v695h73V442q21 22 53 36t67 14q49 0 87.5-18t65-51 40.5-79 14-102q0-55-18-101.5T410.5 60t-77-53T237-12zm1 63q41 0 71.5 16t51 42 30.5 60.5 10 70.5q0 38-7.5 71.5t-25 59T324 411t-66 15q-30 0-59.5-14.5T152 379V66q14-7 36-11t50-4z"/><glyph glyph-name="c" unicode="c" horiz-adv-x="440" d="M258-12q-53 0-94 21T95.5 64.5t-41.5 80T40 240q0 61 18 108.5t48 79 70 48 85 16.5q30 0 53-5t41-12.5 31-15.5 22-15l-35-55q-19 14-45 27t-68 13q-37 0-64-14.5T152 375t-25.5-59.5T118 242q0-38 8.5-73t26-61T197 66.5 262 51q22 0 41.5 4.5t34.5 11T363.5 80 379 91l30-55q-7-6-19.5-14.5T358 5.5 314-7t-56-5z"/><glyph glyph-name="d" unicode="d" horiz-adv-x="523" d="M238-12q-43 0-79.5 16.5T96 53.5t-41 79T40 239q0 57 16 103.5t44.5 80T168 474t84 18q75 0 122-42v270h73V98q0-25 3.5-52T459 0h-73q-2 8-5 24.5T377 55q-25-31-60-49t-79-18zm15 66q32 0 65 17t56 49v265q-23 21-50.5 32.5T259 429q-34 0-60.5-14T154 375.5t-27-60-9-74.5q0-41 7.5-75.5t24-59 42-38.5T253 54z"/><glyph glyph-name="e" unicode="e" horiz-adv-x="490" d="M267-12q-57 0-99.5 20t-71 54.5-42.5 81T40 243t15.5 98.5 44 79T168 473t88 19q90 0 139.5-58.5T445 276q0-8-.5-16.5T443 242H118q1-38 9.5-73t26.5-61 46-41.5T269 51q25 0 46 5t37.5 11.5 29 14T402 94l30-57q-9-6-23.5-14.5t-35-16-47-13T267-12zm103 312q-1 25-7.5 48.5t-20 41.5-35.5 28.5-53 10.5q-58 0-90-36t-42-93h248z"/><glyph glyph-name="f" unicode="f" horiz-adv-x="317" d="M100 422H20v58h80v71q0 83 45.5 132T275 732q35 0 54.5-5t25.5-8l-19-63q-5 2-21 7t-42 5q-48 0-74-31t-26-91v-66h122v-58H173V0h-73v422z"/><glyph glyph-name="g" unicode="g" horiz-adv-x="505" d="M239-237q-40 0-75 7.5t-61 24T62-164t-15 61q0 41 23 72.5T129 21q-20 10-31.5 26.5T86 92q0 24 14.5 43.5T135 167q-41 23-63 62t-22 87q0 38 13.5 70t38.5 55.5 60.5 37T242 492q40 0 75-12h156v-58h-74q35-44 35-106 0-38-13.5-70T382 190.5t-60.5-37T242 140q-28 0-53 6-32-16-32-40 0-20 19.5-28T225 68q39-2 83-4.5t81-15T450.5 7 475-78q0-37-19.5-66.5t-52-50T328-226t-89-11zm3 58q72 0 115.5 26.5T401-81q0 28-11.5 44T360-13.5 320-4t-43 3q-23 2-47 3t-46 4q-65-38-65-101 0-35 29-59.5t94-24.5zm0 379q56 0 86.5 32.5T359 316t-30.5 83.5T242 432t-86.5-32.5T125 316t30.5-83.5T242 200z"/><glyph glyph-name="h" unicode="h" horiz-adv-x="527" d="M79 720h73V411q8 10 21.5 24t33 26.5T251 483t57 9q38 0 64.5-12t43.5-32 25-47.5 8-58.5V0h-73v328q0 45-18.5 71.5T291 426q-28 0-51.5-12t-42-27-30-29.5T152 338V0H79v720z"/><glyph glyph-name="i" unicode="i" horiz-adv-x="250" d="M125 570q-23 0-38.5 15.5T71 624t15.5 38.5T125 678t38.5-15.5T179 624t-15.5-38.5T125 570zm-37-90h74V0H88v480z"/><glyph glyph-name="j" unicode="j" horiz-adv-x="239" d="M20-230q-25 0-37 2.5t-15 4.5l12 61q4-2 11.5-3.5T14-167q40 0 55 30.5T84-51v531h73V-64q0-37-7.5-67.5t-24-52.5T83-218t-63-12zm99 800q-23 0-38.5 15.5T65 624t15.5 38.5T119 678t38.5-15.5T173 624t-15.5-38.5T119 570z"/><glyph glyph-name="k" unicode="k" horiz-adv-x="468" d="M157 268l198 212h87L242 268 451 0h-89zM79 720h73V0H79v720z"/><glyph glyph-name="l" unicode="l" horiz-adv-x="241" d="M84 720h73V0H84v720z"/><glyph glyph-name="m" unicode="m" horiz-adv-x="793" d="M82 480h73v-68q8 10 20.5 23.5t30.5 26 41.5 21.5 54.5 9q53 0 82-23.5t41-57.5q14 15 30 30t35 26 41.5 18 48.5 7q36 0 62-11.5t42-31.5 23.5-47.5T715 342V0h-73v328q0 44-16.5 71T563 426q-22 0-41.5-7.5t-36-19-29-24.5-21.5-24V0h-73v328q0 45-17.5 71.5T285 426q-26 0-48.5-11.5t-39-26.5-27.5-29.5-15-19.5V0H82v480z"/><glyph glyph-name="n" unicode="n" horiz-adv-x="530" d="M82 480h73v-69q32 41 71.5 61t84.5 20q38 0 64.5-12t43.5-32 25-47.5 8-58.5V0h-73v328q0 45-18.5 71.5T294 426q-41 0-77-26.5T155 338V0H82v480z"/><glyph glyph-name="o" unicode="o" horiz-adv-x="528" d="M262-12q-61 0-103 23.5t-68.5 60-38.5 81T40 239t11.5 87T89 407.5t67.5 60.5T259 492t104-23.5 71-60 41-81 13-86.5-12.5-87T436 72.5 366 12 262-12zm1 63q37 0 65 15t46 40.5 27 59.5 9 73-9.5 73.5-29 60.5-48 41-65.5 15q-38 0-64.5-15t-43-40.5T126 314t-8-73 8.5-73.5T153 107t45-41 65-15z"/><glyph glyph-name="p" unicode="p" horiz-adv-x="529" d="M82 480h73v-52q19 23 53 43.5t86 20.5q44 0 80-17t61.5-49 39.5-78.5T489 241q0-57-15.5-103.5t-44-79.5T362 6.5 277-12q-51 0-79.5 15T155 30v-249H82v699zM270 51q34 0 60.5 14t44.5 39.5 27 59.5 9 75q0 40-8 74.5T379 373t-41 39-59 14q-25 0-46-8t-36.5-19-26-22-15.5-18V95q17-15 43.5-29.5T270 51z"/><glyph glyph-name="q" unicode="q" horiz-adv-x="522" d="M367 38q-16-17-47.5-33.5T247-12q-49 0-87.5 18.5T94.5 58 54 137 40 238t18.5 101.5 51 80.5 77 53 95.5 19q36 0 63.5-5t47.5-11.5 32-12.5 15-8v-672h-73V38zM261 54q20 0 38 6t32.5 14T355 90t12 11v311q-7 3-27.5 10t-58.5 7q-41 0-71.5-16t-51-42-30.5-60.5-10-70.5q0-38 7.5-71.5t25-59T195 69t66-15z"/><glyph glyph-name="r" unicode="r" horiz-adv-x="345" d="M82 480h73v-75q7 12 18.5 27t27.5 28.5 36.5 22.5 45.5 9q22 0 33.5-4t16.5-6l-18-70q-4 2-13.5 5t-28.5 3q-27 0-48-13t-36-30-23.5-33-10.5-22V0H82v480z"/><glyph glyph-name="s" unicode="s" horiz-adv-x="408" d="M193-13q-52 0-90.5 15T41 33l32 56q14-10 44.5-24.5T192 50q45 0 71.5 18t26.5 51q0 16-6.5 28.5t-20 23T230 191t-46 21q-28 12-52 25t-42 30-28 39.5T52 360q0 28 10 52t29.5 42 48 28 64.5 10q30 0 53.5-5.5t41.5-13 29.5-15.5 17.5-12l-36-53q-13 10-39.5 23T203 429q-38 0-59-17.5T123 363q0-34 26-51.5t66-34.5q29-12 56-25.5t47.5-30.5 33-39.5T364 129q0-66-46-104T193-13z"/><glyph glyph-name="t" unicode="t" horiz-adv-x="348" d="M224-12q-60 0-90 33.5T104 115v307H25v58h79v137h73V480h121v-58H177V122q0-36 12-53.5T233 51q23 0 41 8t24 13l27-55q-11-7-36.5-18T224-12z"/><glyph glyph-name="u" unicode="u" horiz-adv-x="528" d="M218-12q-38 0-65 12t-44 32-25 47.5-8 58.5v342h73V152q0-45 18.5-71.5T235 54q27 0 51 12t42 27 29.5 29.5T373 142v338h73V101q0-31 3-59t6-42h-74q-2 9-4 31t-3 40q-8-11-22-25.5T318.5 18 274-3.5 218-12z"/><glyph glyph-name="v" unicode="v" horiz-adv-x="462" d="M16 480h80L233 96h2l134 384h75L267 0h-68z"/><glyph glyph-name="w" unicode="w" horiz-adv-x="698" d="M17 480h80l102-363h2l113 363h71l113-364h2l103 364h74L533 0h-66L348 373h-2L226 0h-66z"/><glyph glyph-name="x" unicode="x" horiz-adv-x="462" d="M188 251L32 480h83q31-46 56-83 10-16 20.5-31t19-27.5 14-21 6.5-9.5l109 172h77L267 256 441 0h-83L223 199 98 0H22z"/><glyph glyph-name="y" unicode="y" horiz-adv-x="469" d="M57-232q-19 0-29 1.5T11-227l10 61q5-1 12-2t25-1q25 0 43.5 7t32.5 21 24.5 34T179-60l23 63L21 480h82L240 97h2l133 383h78L249-64q-12-33-27-63.5t-37-54-53-37T57-232z"/><glyph glyph-name="z" unicode="z" horiz-adv-x="423" d="M42 46l244 375H56v59h319v-49L130 59h249V0H42v46z"/><glyph glyph-name="braceleft" unicode="{" horiz-adv-x="358" d="M247-161q-20 0-39.5 6.5T173-135t-24.5 33.5T139-53v201q0 49-29.5 78.5T28 257v56q51 1 81 29.5t30 79.5v191q0 28 9.5 48.5T173 695t34 19 39 6h87v-57h-66q-35 0-46-21.5T210 584V409q0-55-28-82.5T110 288v-2q44-13 72-42.5t28-85.5V-29q0-37 10.5-56t45.5-19h67v-57h-86z"/><glyph glyph-name="bar" unicode="|" horiz-adv-x="284" d="M112 750h60V-250h-60V750z"/><glyph glyph-name="braceright" unicode="}" horiz-adv-x="358" d="M25-104h66q35 0 46 21.5T148-25v186q0 55 28 82.5t72 38.5v2q-44 13-72 42.5T148 412v176q0 37-10.5 56T92 663H25v57h86q20 0 39.5-6.5T185 694t24.5-33.5T219 612V422q0-49 29.5-78.5T330 313v-56q-51-1-81-29.5T219 148V-54q0-28-9.5-48.5T185-136t-34-19-39-6H25v57z"/><glyph glyph-name="asciitilde" unicode="~" horiz-adv-x="588" d="M398 178q-41 0-69.5 11T276 213t-46 24-50 11q-30 0-51-12.5T91 208l-36 45q23 20 57 39.5t74 19.5q34 0 59.5-11t49-23.5 49-23.5 60.5-11q24 0 48.5 11.5T499 284l34-45q-27-26-63-43.5T398 178z"/><glyph glyph-name="uni00A0" horiz-adv-x="225"/><glyph glyph-name="exclamdown" unicode="¡" horiz-adv-x="275" d="M138 379q-23 0-40 16.5T81 435q0 24 17 40.5t40 16.5 40-16.5 17-40.5q0-23-17-39.5T138 379zm-29-94h58l16-467H93z"/><glyph glyph-name="sterling" unicode="£" horiz-adv-x="468" d="M61 356h88q-5 32-8.5 66.5T137 494q0 40 10.5 73.5t32.5 58 56 38.5 81 14q45 0 73.5-11.5T437 644l-33-56q-14 9-36.5 17.5T307 614q-51 0-72.5-34T213 492q0-28 3.5-63.5T224 356h151v-59H230q3-27 3-49 0-38-7.5-68.5t-19-53.5T182 87t-24-25h258V0H54v49q29 16 49.5 39.5t33 50T155 193t6 52q0 12-1 25t-3 27H61v59z"/><glyph glyph-name="dieresis" unicode="¨" horiz-adv-x="500" d="M156 538q-22 0-37.5 15.5T103 592q0 22 15.5 37.5T156 645q23 0 38.5-15.5T210 592q0-23-15.5-38.5T156 538zm187 0q-22 0-37.5 15.5T290 592q0 22 15.5 37.5T343 645q23 0 38.5-15.5T397 592q0-23-15.5-38.5T343 538z"/><glyph glyph-name="copyright" unicode="©" horiz-adv-x="865" d="M440 127q-50 0-92 18.5t-72.5 50-47.5 74-17 89.5q0 49 17.5 91t48.5 73.5 73 49.5 90 18q53 0 84.5-15t56.5-35l-38-48q-16 14-39.5 26.5T439 532q-40 0-69-15.5t-48.5-40-29-55T283 361q0-36 12.5-68t34-56 51-37.5T444 186q44 0 71.5 15t44.5 29l31-51q-25-20-60.5-36T440 127zm-8-141q-77 0-144.5 29.5t-118 80-80 118.5T60 359t29.5 145 80 118.5 118 80T432 732t145-29.5 118.5-80 80-118.5T805 359t-29.5-145-80-118.5-118.5-80T432-14zm0 52q68 0 126 24t100.5 66.5T725 230t24 129-24 128.5T658.5 589 558 656t-126 24-126-24-100-67-66-101.5T116 359t24-129 66-101.5T306 62t126-24z"/><glyph glyph-name="ordfeminine" unicode="ª" horiz-adv-x="361" d="M139 315q-22 0-41 7t-33.5 20T42 372.5 34 411q0 26 10 45.5T70 490q28 23 70.5 31.5T231 530v27q0 32-14 50t-51 18q-32 0-53-12.5T79 590l-33 42q14 12 44.5 29t78.5 17q58 0 90-28t32-88V405q0-25 2.5-45.5T300 323h-62q-3 17-5 35-14-15-38-29t-56-14zm8 52q17 0 30.5 5t24 12 17.5 14.5 12 12.5v73q-42 0-72-5.5T111 453q-14-15-14-40 0-22 14.5-34t35.5-12z"/><glyph glyph-name="uni00AD" unicode="­" horiz-adv-x="309" d="M54 319h201v-64H54v64z"/><glyph glyph-name="registered" unicode="®" horiz-adv-x="865" d="M297 588h147q34 0 60.5-10.5t43.5-28 26-40.5 9-48q0-50-31.5-79.5T463 344q15-11 27-25t26-34l105-149h-79L433 295q-17 25-31 34.5t-40 9.5V136h-65v452zM432-14q-77 0-144.5 29.5t-118 80-80 118.5T60 359t29.5 145 80 118.5 118 80T432 732t145-29.5 118.5-80 80-118.5T805 359t-29.5-145-80-118.5-118.5-80T432-14zm0 52q68 0 126 24t100.5 66.5T725 230t24 129-24 128.5T658.5 589 558 656t-126 24-126-24-100-67-66-101.5T116 359t24-129 66-101.5T306 62t126-24zm-24 352q19 0 38 2t34 9 24 21.5 9 38.5q0 32-18.5 51.5T429 532h-67V390h46z"/><glyph glyph-name="macron" unicode="¯" horiz-adv-x="500" d="M114 635h271v-61H114v61z"/><glyph glyph-name="degree" unicode="°" horiz-adv-x="346" d="M173 418q-27 0-51 10.5t-41.5 28-28 41T42 548t10.5 50.5 28 41 41.5 28 51 10.5 51-10.5 41.5-28 28-41T304 548t-10-50.5-28-41-42-28-51-10.5zm0 51q33 0 54.5 23t21.5 56q0 32-21.5 55.5T173 627t-54.5-23.5T97 548q0-33 21.5-56t54.5-23z"/><glyph glyph-name="plusminus" unicode="±" horiz-adv-x="580" d="M258 235H45v61h213v204h69V296h208v-61H327V20h-69v215zM75-51h435v-64H75v64z"/><glyph glyph-name="twosuperior" unicode="²" horiz-adv-x="335" d="M34 371q27 21 56 45.5t54 50.5 41 52.5 16 52.5-16 38-40 12q-26 0-45-9.5T66 590l-34 39q21 17 49.5 30t73.5 13q60 0 86.5-25.5T268 579q0-26-12-51.5T224.5 478 180 431t-52-45q6 0 18 .5t23 .5h117v-50H34v34z"/><glyph glyph-name="threesuperior" unicode="³" horiz-adv-x="306" d="M95 331q-21 0-41.5 3.5T26 341l13 49q8-3 23.5-6t29.5-3q44 0 70 14t26 40q0 30-30 41.5T77 489v43q43 1 71.5 15t28.5 39q0 17-14.5 26.5T122 622q-20 0-40-9.5T52 595l-28 39q14 13 45.5 25.5T136 672q54 0 80-20t26-55q0-32-20-51t-50-27v-1q34-3 58-24t24-58q0-52-42-78.5T95 331z"/><glyph glyph-name="acute" unicode="´" horiz-adv-x="500" d="M241 666h109L215 540h-66z"/><glyph glyph-name="mu" unicode="µ" horiz-adv-x="526"/><glyph glyph-name="paragraph" unicode="¶" horiz-adv-x="644" d="M260 274q-40 0-75.5 13.5t-62 39-42 61.5T65 469t15.5 81 41.5 62 61.5 40 76.5 14h319v-63h-80v-780h-67v780H328v-780h-68v451z"/><glyph glyph-name="periodcentered" unicode="·" horiz-adv-x="220" d="M110 230q-26 0-43.5 17.5T49 291t17.5 43 43.5 17 43.5-17 17.5-43-17.5-43.5T110 230z"/><glyph glyph-name="cedilla" unicode="¸" horiz-adv-x="500" d="M226-219q-27 0-42.5 4t-23.5 8l12 42q7-4 20-7.5t33-3.5q23 0 36.5 9.5T275-137q0 14-6 22t-16 12.5-23 5.5-26 1l36 96h51l-25-66q31-5 50.5-23t19.5-47q0-41-32.5-62T226-219z"/><glyph glyph-name="quoteleft" unicode="‘" horiz-adv-x="203" d="M108 437q-26 0-45.5 18.5T43 508q0 25 7 49.5T67 603t21 37.5 18 25.5h54q-11-14-24-39.5T123 573q0-14 6-23.5t13.5-18.5 13.5-19 6-26q0-21-15.5-35T108 437z"/><glyph glyph-name="quoteright" unicode="’" horiz-adv-x="203" d="M43 449q11 14 24 39.5T80 542q0 14-6 23.5T60.5 584 47 603t-6 26q0 21 15.5 35T95 678q26 0 45.5-18.5T160 607q0-25-7-49.5T136 512t-21-37.5T97 449H43z"/><glyph glyph-name="quotesinglbase" unicode="‚" horiz-adv-x="203" d="M43-119q11 14 24 39.5T80-26q0 14-6 23.5T60.5 16 47 35t-6 26q0 21 15.5 35T95 110q26 0 45.5-18.5T160 39q0-25-7-49.5T136-56t-21-37.5T97-119H43z"/><glyph glyph-name="quotedblleft" unicode="“" horiz-adv-x="364" d="M98 437q-26 0-45.5 18.5T33 508q0 25 7 49.5T57 603t21 37.5T96 666h54q-11-14-24-39.5T113 573q0-14 6-23.5t13.5-18.5 13.5-19 6-26q0-21-15.5-35T98 437zm171 0q-26 0-45.5 18.5T204 508q0 25 7 49.5t17 45.5 21 37.5 18 25.5h54q-11-14-24-39.5T284 573q0-14 6-23.5t13.5-18.5 13.5-19 6-26q0-21-15.5-35T269 437z"/><glyph glyph-name="quotedblright" unicode="”" horiz-adv-x="364" d="M43 449q11 14 24 39.5T80 542q0 14-6 23.5T60.5 584 47 603t-6 26q0 21 15.5 35T95 678q26 0 45.5-18.5T160 607q0-25-7-49.5T136 512t-21-37.5T97 449H43zm171 0q11 14 24 39.5t13 53.5q0 14-6 23.5T231.5 584 218 603t-6 26q0 21 15.5 35t38.5 14q26 0 45.5-18.5T331 607q0-25-7-49.5T307 512t-21-37.5-18-25.5h-54z"/><glyph glyph-name="quotedblbase" unicode="„" horiz-adv-x="374" d="M43-119q11 14 24 39.5T80-26q0 14-6 23.5T60.5 16 47 35t-6 26q0 21 15.5 35T95 110q26 0 45.5-18.5T160 39q0-25-7-49.5T136-56t-21-37.5T97-119H43zm171 0q11 14 24 39.5T251-26q0 14-6 23.5T231.5 16 218 35t-6 26q0 21 15.5 35t38.5 14q26 0 45.5-18.5T331 39q0-25-7-49.5T307-56t-21-37.5-18-25.5h-54z"/><glyph glyph-name="dagger" unicode="†" horiz-adv-x="543" d="M228 276l16 142-82-8H52v70h110l82-8-13 111v137h81V583l-13-111 82 8h110v-70H381l-82 8 15-142-18-446h-49z"/><glyph glyph-name="daggerdbl" unicode="‡" horiz-adv-x="543" d="M231-31l13 111-82-8H52v70h110l82-8-16 142 16 142-82-8H52v70h110l82-8-13 111v137h81V583l-13-111 82 8h110v-70H381l-82 8 15-142-15-142 82 8h110V72H381l-82 8 13-111v-137h-81v137z"/><glyph glyph-name="bullet" unicode="•" horiz-adv-x="362" d="M181 162q-26 0-48.5 9.5T93 198t-27 39.5T56 286t10 48.5T93 374t39.5 27 48.5 10 48.5-10 39.5-27 27-39.5 10-48.5-10-48.5-27-39.5-39.5-26.5T181 162z"/><glyph glyph-name="ellipsis" unicode="…" horiz-adv-x="621" d="M110-9Q84-9 67 8.5T50 51t17 42 43 17q25 0 42.5-17T170 51 152.5 8.5 110-9zm200 0q-25 0-42 17.5T251 51t17 42 42 17q26 0 43-17t17-42-17-42.5T310-9zm201 0q-25 0-42.5 17.5T451 51t17.5 42 42.5 17 42.5-17T571 51 553.5 8.5 511-9z"/></font>
</defs>
</svg>
