<svg xmlns="http://www.w3.org/2000/svg"><defs><font horiz-adv-x="580"><font-face font-family="Aqaadqcqnmhzqigvkixmkpmuuyg" font-weight="900" panose-1="2 11 10 4 3 1 1 2 1 2" ascent="760" descent="-240" x-height="493" cap-height="666" bbox="-64 -250 933 784" underline-thickness="100" underline-position="-35" unicode-range="U+000D-FEFF"/><glyph glyph-name="space" horiz-adv-x="170"/><glyph glyph-name="exclam" unicode="!" horiz-adv-x="326" d="M163-11q-24 0-43.5 8T86 19 64.5 51.5 57 91q0 42 29 71.5t77 29.5 77-29.5T269 91q0-21-7.5-39.5T240 19 206.5-3 163-11zM59 666h208l-32-420H91z"/><glyph glyph-name="quotedbl" unicode="&quot;" horiz-adv-x="431" d="M31 666h163l-17-262H62zm206 0h163l-31-262H254z"/><glyph glyph-name="numbersign" unicode="#" horiz-adv-x="567" d="M103 161H11l22 132h90l12 78H46l21 132h88l25 163h118l-25-163h81l25 163h118l-24-163h83l-22-132h-81l-12-78h82l-22-132h-80L397 0H279l24 161h-82L197 0H79zm223 127l13 88h-89l-13-88h89z"/><glyph glyph-name="dollar" unicode="$" horiz-adv-x="530" d="M192-118V-9Q127-2 84 17T21 52l74 130q6-3 18.5-10.5t30.5-15 40-13 48-5.5q42 0 63.5 14t21.5 37q0 16-12 26t-32.5 18.5-47 18T169 276q-31 15-55.5 33.5t-42 43-26.5 56-9 72.5q0 72 43 121t113 67v115h144V673q55-8 88.5-23.5T477 620l-70-130q-9 5-23 11.5T353.5 514t-35 10-36.5 4q-70 0-70-47 0-15 10-25t27-19 40.5-17.5T340 399q33-15 61.5-31t49.5-38.5 33-53.5 12-75q0-79-41-130.5T336-1v-117H192z"/><glyph glyph-name="percent" unicode="%" horiz-adv-x="901" d="M209 322q-47 0-82.5 13.5t-60.5 37-37.5 56T16 499q0 36 13 68.5t38 57 61 39 83 14.5q46 0 82-13t61-36 37.5-55 12.5-70-13-71-38-57.5-61.5-39T209 322zm2 106q15 0 23 6t12.5 16 5.5 23 1 26-2 26-6.5 23.5-13 17T210 572q-27 0-35-20t-8-48q0-13 2-26.5t6.5-24.5 13-18 22.5-7zM690-12q-47 0-82.5 13.5t-60.5 37-37.5 56T497 165q0 36 13 68.5t38 57 61 39 83 14.5q46 0 82-13t61-36 37.5-55 12.5-70-13-71-38-57.5-61.5-39T690-12zm2 106q15 0 23 6t12.5 16 5.5 23 1 26-2 26-6.5 23.5-13 17T691 238q-27 0-35-20t-8-48q0-13 2-26.5t6.5-24.5 13-18 22.5-7zM573 666h141L326 0H185z"/><glyph glyph-name="ampersand" unicode="&" horiz-adv-x="697" d="M271-12q-62 0-108 14T87 40.5t-45 59T27 176q0 70 35 114.5T163 370q-27 36-42.5 69.5T105 511q0 39 16 69.5t45 52.5 68 33.5 86 11.5q51 0 89-12t64-33 39-49 13-60q0-55-35.5-95T391 351l79-93q11 23 19 46.5t13 48.5l149-26q-9-51-30-98t-52-88L689 0H477l-30 35q-40-23-84-35t-92-12zm43 451q29 20 39.5 38t10.5 36q0 20-11 32.5T322 558q-19 0-32-12.5T277 513t11.5-39 25.5-35zm-26-318q38 0 71 18L251 266q-39-32-39-76 0-33 21.5-51t54.5-18z"/><glyph glyph-name="quotesingle" unicode="'" horiz-adv-x="230" d="M31 666h168l-26-262H57z"/><glyph glyph-name="parenleft" unicode="(" horiz-adv-x="376" d="M207-161q-21 22-51.5 60.5T97.5-7 50 120.5 30 284q0 86 19 157t47 126 58 93.5 53 59.5h171q-20-23-46.5-62t-50-93-40-123T225 289t14-152 36-123.5T324-85t54-76H207z"/><glyph glyph-name="parenright" unicode=")" horiz-adv-x="378" d="M-2-161q27 33 54.5 75.5t50 96.5T139 132.5 153 284t-17 153.5T95 562t-50.5 95T-2 720h173q22-21 52.5-59t58.5-92 47-124 19-156q0-91-20-164T280.5-4t-58-95.5T171-161H-2z"/><glyph glyph-name="asterisk" unicode="*" horiz-adv-x="524" d="M76 335l89 94-125 32 48 128 110-48-9 125h146l-9-125 110 48 48-128-125-32 89-94-120-83-66 110-66-110z"/><glyph glyph-name="plus" unicode="+" horiz-adv-x="600" d="M225 194H65v134h160v162h149V328h160V194H374V30H225v164z"/><glyph glyph-name="comma" unicode="," horiz-adv-x="334" d="M45-120q25 25 41 47t16 51q0 18-6.5 31T81 34.5 66.5 62 60 99q0 43 30 70t74 27q50 0 77.5-33.5T269 78q0-32-11.5-65T225-53.5 175.5-119 113-181z"/><glyph glyph-name="hyphen" unicode="-" horiz-adv-x="346" d="M48 349h250V207H48v142z"/><glyph glyph-name="period" unicode="." horiz-adv-x="334" d="M167-11q-23 0-43 8T89 19.5 65.5 53 57 95q0 22 8.5 41T89 169.5t35 22.5 43 8 43-8 35-22.5 23.5-33.5 8.5-41q0-23-8.5-42T245 19.5 210-3t-43-8z"/><glyph glyph-name="slash" unicode="/" horiz-adv-x="487" d="M213 0H38l240 666h175z"/><glyph glyph-name="zero" unicode="0" d="M290-12q-69 0-118.5 28.5T91 93 45.5 203 31 333t14 130.5 44.5 110 79.5 76T289 678q69 0 118.5-28.5t81-76.5 46-110.5T549 333q0-68-14.5-130t-46-110T408 16.5 290-12zm-1 140q40 0 53.5 49T356 333t-13.5 156-52.5 49q-40 0-53.5-49T223 333t13.5-156 52.5-49z"/><glyph glyph-name="one" unicode="1" d="M77 142h140v371L92 478 55 617l205 49h136V142h140V0H77v142z"/><glyph glyph-name="two" unicode="2" d="M31 94q52 45 101 89.5t87.5 89.5 61.5 90.5 23 92.5q0 40-20.5 60T231 536q-35 0-70-17.5T100 477L18 589q17 16 39.5 32t51 29 64.5 20.5 81 7.5q63 0 109-16t76-43.5 44-64 14-78.5q0-49-15-93t-43-85-67-81-87-81h7q8 1 19 2t23 1.5 22 .5h172V0H31v94z"/><glyph glyph-name="three" unicode="3" d="M202-12q-56 0-97 7.5T44 10l30 138q17-6 51-13t72-7q58 0 92 18.5t34 57.5q0 42-46 59t-130 18v121q75 2 117.5 24.5T307 482q0 28-23.5 42T226 538q-18 0-36-4.5t-34-11-29.5-14T105 494L37 608q14 11 35.5 23.5t51 23 66 17T269 678q104 0 163.5-42T492 523q0-33-13-58.5T445.5 420t-46-31.5T350 369v-2q27-3 56.5-14t53.5-31 40-49 16-69q0-47-21-87t-61.5-68.5T335 4 202-12z"/><glyph glyph-name="four" unicode="4" d="M304 122H10v112l311 432h162V255h79V122h-79V0H304v122zM179 252q11 2 27.5 2.5t42.5.5h59v183h-2z"/><glyph glyph-name="five" unicode="5" d="M196-12q-51 0-89.5 5.5T57 3l27 140q4-2 16-4.5t28-4.5 33-4 32-2q27 0 51 5t41 15.5 27 27.5 10 40q0 24-11.5 41T279 284t-48 14.5-62 4.5q-26 0-50.5-2.5T83 296l21 370h384V526H265l-6-90q51-2 97.5-15t81-38.5 55-64T513 227q0-58-23-102.5t-64.5-75-100-46T196-12z"/><glyph glyph-name="six" unicode="6" d="M296-12q-71 0-122 23.5T90.5 76 43 172 28 289q0 87 30 158.5T144.5 570 282 649.5 464 678l39-146q-43-1-86.5-6.5t-81.5-21-67-42.5-42-70q22 14 49 21.5t65 7.5q42 0 80-13.5t67.5-39.5 46.5-65.5 17-90.5q0-55-20.5-96.5t-55.5-70-81.5-43T296-12zm0 132q29 0 46.5 21.5T360 203q0 46-19 66.5T293 290q-26 0-45-7.5T215 263v-1q0-39 7-66.5t18-44 26-24 30-7.5z"/><glyph glyph-name="seven" unicode="7" d="M73 26l258 493H39v147h502v-88L228-28z"/><glyph glyph-name="eight" unicode="8" d="M291-12q-61 0-110 12T97.5 35t-53 57T26 170q0 57 35 96.5t92 69.5q-49 27-78 63.5T46 490q0 42 18.5 77t51.5 59.5 77.5 38T290 678q54 0 99.5-11t78.5-32.5 51-54.5 18-78q0-46-32.5-82.5T421 354q29-14 53-31t41.5-38 27.5-48 10-61q0-47-19.5-82T479 35.5 396 0 291-12zm-3 127q36 0 57.5 17t21.5 43-23.5 46-66.5 43q-31-19-50.5-40T207 175q0-27 23-43.5t58-16.5zm8 306q26 19 43 37.5t17 37.5q0 26-18 41t-45 15q-29 0-47-15.5T228 501q0-24 19.5-43.5T296 421z"/><glyph glyph-name="nine" unicode="9" d="M82 128q43 1 85.5 8t79 23.5 64 44.5 39.5 71q-22-14-48-22t-64-8q-42 0-80 13.5T91.5 298t-45 65.5T30 454q0 55 20.5 96.5t55 70 79.5 43 95 14.5q73 0 123.5-23.5T486 590t46.5-96T547 377q0-89-27-162T439 90.5t-133.5-80T121-18zm204 248q26 0 43 7.5t31 19.5v1q0 73-23 107.5T283 546q-29 0-45.5-21.5T221 463q0-46 18-66.5t47-20.5z"/><glyph glyph-name="colon" unicode=":" horiz-adv-x="334" d="M167-11q-23 0-43 8T89 19.5 65.5 53 57 95q0 22 8.5 41T89 169.5t35 22.5 43 8 43-8 35-22.5 23.5-33.5 8.5-41q0-23-8.5-42T245 19.5 210-3t-43-8zm0 299q-23 0-43 8t-35 22.5T65.5 352 57 394q0 22 8.5 41T89 468.5t35 22.5 43 8 43-8 35-22.5 23.5-33.5 8.5-41q0-23-8.5-42T245 318.5 210 296t-43-8z"/><glyph glyph-name="semicolon" unicode=";" horiz-adv-x="334" d="M167 288q-23 0-43 8t-35 22.5T65.5 352 57 394q0 22 8.5 41T89 468.5t35 22.5 43 8 43-8 35-22.5 23.5-33.5 8.5-41q0-23-8.5-42T245 318.5 210 296t-43-8zM45-120q25 25 41 47t16 51q0 18-6.5 31T81 34.5 66.5 62 60 99q0 43 30 70t74 27q50 0 77.5-33.5T269 78q0-32-11.5-65T225-53.5 175.5-119 113-181z"/><glyph glyph-name="less" unicode="<" horiz-adv-x="600" d="M111 249l260 241 94-96-152-141 156-137-95-101z"/><glyph glyph-name="equal" unicode="=" horiz-adv-x="600" d="M95 225h409V93H95v132zm0 206h409V299H95v132z"/><glyph glyph-name="greater" unicode=">" horiz-adv-x="600" d="M135 111l152 141-156 137 95 101 263-234L229 15z"/><glyph glyph-name="question" unicode="?" horiz-adv-x="419" d="M92 292q0 25 5 43.5t14 32 20.5 24T157 411q27 19 38 36t11 40q0 46-62 46-35 0-55-9t-34-16L-6 637q25 14 69 27.5T183 678q57 0 98-13.5t67.5-37.5 39.5-55.5 13-67.5q0-49-18.5-82T332 365q-17-13-32.5-22T271 324t-20.5-21.5T243 274v-28H92v46zm76-303q-24 0-43.5 8T91 19 69.5 51.5 62 91q0 42 29 71.5t77 29.5 77-29.5T274 91q0-21-7.5-39.5T245 19 211.5-3 168-11z"/><glyph glyph-name="at" unicode="@" horiz-adv-x="849" d="M420-104q-85 0-153.5 25T150-8.5t-73.5 109T51 242q0 74 29 145.5t81 128T285.5 607 445 642q93 0 163-24t116.5-67 70-102.5T818 319q0-57-16-102t-46-76-71.5-47.5T592 77q-57 0-80 18.5T482 144h-3q-18-25-50-44t-77-19q-50 0-79.5 34.5T243 204q0 58 15.5 107t44 84.5T371 451t88 20q54 0 99-10t74-21l-32-190q-2-14-3-23.5t-1-17.5q0-24 23-24 16 0 31.5 7.5t27.5 23 19.5 39.5 7.5 57q0 118-66.5 172T444 538q-56 0-104.5-21T255 458t-57-92.5T177 245q0-123 62-183T431 2q44 0 81.5 9T574 31l39-101q-14-6-35-12t-46.5-11-54.5-8-57-3zm-9 297q28 0 46 31t33 106l7 34q-6 2-16.5 4t-24.5 2q-18 0-32-11.5T400.5 328t-14-44.5T382 231q0-20 6-29t23-9z"/><glyph glyph-name="A" unicode="A" horiz-adv-x="721" d="M264 666h183L711 0H503l-32 94H234L203 0H10zm155-423l-36 105q-8 22-13.5 42t-9 36-6 26-2.5 12h-2q0-2-3-12l-6-26q-4-16-9.5-36.5T319 348l-35-105h135z"/><glyph glyph-name="B" unicode="B" horiz-adv-x="625" d="M72 666h259q46 0 89.5-7.5t77-26.5 53.5-51 20-81q0-70-32-106.5T453 343v-2q29-4 55-15.5t46-31 31.5-47T597 183q0-51-20.5-85.5T520 41 435 9.5 328 0H72v666zm247-524q38 0 62 14.5t24 50.5q0 35-21 50t-59 15h-65V142h59zm-14 259q42 0 61 15.5t19 47.5q0 60-76 60h-49V401h45z"/><glyph glyph-name="C" unicode="C" horiz-adv-x="620" d="M390-12q-91 0-157.5 28.5t-110 76-65 110T36 333t22 130.5 66.5 110 112 76T394 678q66 0 117.5-14t92.5-41l-82-138q-27 16-56.5 26T391 521q-37 0-65.5-13.5t-48-37.5-29.5-57.5-10-73.5q0-42 9.5-77.5t29-61 48.5-40 68-14.5q54 0 86 15.5t55 31.5l76-132q-13-11-35-24t-50.5-24-63-18-71.5-7z"/><glyph glyph-name="D" unicode="D" horiz-adv-x="728" d="M72 666h238q98 0 170-23.5t119.5-66 70.5-102T693 343t-23.5-134.5-72-109-121.5-73T304 0H72v666zm247-515q88 0 130 47t42 139q0 94-42.5 136T314 515h-51V151h56z"/><glyph glyph-name="E" unicode="E" horiz-adv-x="552" d="M72 666h418V511H260V411h203V267H260V155h237V0H72v666z"/><glyph glyph-name="F" unicode="F" horiz-adv-x="525" d="M72 666h409V511H263V388h194V244H263V0H72v666z"/><glyph glyph-name="G" unicode="G" horiz-adv-x="712" d="M403-12q-91 0-160 28.5t-115 76-69 110T36 333t25.5 130.5 74.5 110 120.5 76T420 678q82 0 135-15.5t91-41.5l-80-143q-25 16-61.5 29.5T417 521q-88 0-133.5-47.5T238 339q0-44 9.5-80t29-62.5 50.5-41 74-14.5q29 0 49 4.5t31 9.5v89H374v144h288V48q-17-9-39.5-19.5T569 9 497.5-6 403-12z"/><glyph glyph-name="H" unicode="H" horiz-adv-x="761" d="M72 666h191V420h236v246h190V0H499v265H263V0H72v666z"/><glyph glyph-name="I" unicode="I" horiz-adv-x="357" d="M78 666h192V0H78v666z"/><glyph glyph-name="J" unicode="J" horiz-adv-x="368" d="M74-215q-48 0-77.5 6.5T-56-194l30 152q7-3 22.5-7T26-53q44 0 61 18.5T104 32v634h192V7q0-55-16-96.5T234.5-159 164-201t-90-14z"/><glyph glyph-name="K" unicode="K" horiz-adv-x="678" d="M72 666h191V404l192 262h207L435 361 668 0H446L263 287V0H72v666z"/><glyph glyph-name="L" unicode="L" horiz-adv-x="547" d="M76 666h192V151h237V0H76v666z"/><glyph glyph-name="M" unicode="M" horiz-adv-x="905" d="M124 666h186l111-378q4-16 9-34t8.5-34 6.5-27.5 3-12.5h2q0 1 3 12.5t7 27.5 9 34 10 34l117 378h186L874 0H679l-31 271q-5 38-8 66.5t-3 33.5h-2q-1-5-8-33.5T610 274L533 0H344l-75 273q-4 15-8 31.5t-8 30.5l-6 24q-2 10-2 12h-2q0-3-.5-12.5t-1.5-24-2.5-31T235 271L201 0H31z"/><glyph glyph-name="N" unicode="N" horiz-adv-x="766" d="M72 666h193l182-261q35-51 55-85.5t22-37.5h2q0 2-1 13t-1.5 27-1 36-.5 40v268h172V0H520L316 287q-37 51-54 78l-19 33h-2q0-5 1.5-34t1.5-67V0H72v666z"/><glyph glyph-name="O" unicode="O" horiz-adv-x="784" d="M397-12q-89 0-156.5 29t-113 77T59 204 36 332q0 67 22.5 129.5t67 110.5T237 649t156 29 155.5-28.5 111-75.5T726 465.5 748 338q0-67-21.5-130t-65-112T552 17.5 397-12zm-4 152q43 0 72.5 15.5t47.5 42 26 61 8 73.5-7.5 74-25 62-46.5 42.5-71 15.5q-43 0-73.5-15T274 470.5 246.5 411t-8.5-73 8.5-75 27-63.5 48-43.5 71.5-16z"/><glyph glyph-name="P" unicode="P" horiz-adv-x="629" d="M70 666h259q57 0 106.5-13.5t86-41T579 542t21-100q0-59-21-102t-59-72-91.5-43T310 211h-49V0H70v666zm242-315q51 0 74.5 21t23.5 68q0 46-23.5 65.5T316 525h-55V351h51z"/><glyph glyph-name="Q" unicode="Q" horiz-adv-x="784" d="M596-186q-43 0-81.5 8T438-148.5t-76 58T282 3q-61 16-107 49t-77 77-46.5 96T36 332q0 67 22.5 129.5t67 110.5T237 649t156 29 155.5-28.5 111-75.5T726 465.5 748 338q0-56-15-109.5T688 130t-75.5-78.5T506 2q22-30 44-40t55-10q29 0 48.5 9T684-22l59-120q-8-6-21-13.5t-32-14-42.5-11.5-51.5-5zM393 140q43 0 72.5 15.5t47.5 42 26 61 8 73.5-7.5 74-25 62-46.5 42.5-71 15.5q-43 0-73.5-15T274 470.5 246.5 411t-8.5-73 8.5-75 27-63.5 48-43.5 71.5-16z"/><glyph glyph-name="R" unicode="R" horiz-adv-x="660" d="M72 666h255q128 0 197-51t69-152q0-41-11.5-71.5t-30-52.5-42-36.5T463 280v-2q17-12 37.5-36.5T547 173L650 0H445L332 190q-12 19-20 30.5T297 238t-13 8-14 2h-7V0H72v666zm251-290q42 0 62.5 19.5T406 450q0 38-20.5 56.5T317 525h-54V376h60z"/><glyph glyph-name="S" unicode="S" horiz-adv-x="530" d="M240-12q-42 0-77 6.5T100.5 11 53 32 21 52l75 132q6-3 18-10.5t30-15 40-13 48-5.5q82 0 82 49 0 16-11.5 25.5T271 232t-46 17.5-56 24.5q-31 15-55.5 34t-42 43.5T45 408t-9 73q0 45 17.5 81t48 62 73 40 92.5 14q44 0 77.5-6t59-14.5T447 639t30-19l-71-132q-9 5-22.5 11.5T353 512t-35 10-36 4q-34 0-50.5-10T215 481q0-15 9-24.5t25.5-18T289 422t50-20q33-15 61.5-31.5t50-39.5 33.5-54.5 12-75.5q0-101-66.5-157T240-12z"/><glyph glyph-name="T" unicode="T" horiz-adv-x="569" d="M189 511H10v155h549V511H380V0H189v511z"/><glyph glyph-name="U" unicode="U" horiz-adv-x="734" d="M375-12q-152 0-228.5 67.5T70 265v401h191V278q0-35 6-61t19.5-42.5 36-24.5 56.5-8q62 0 86 33.5t24 98.5v392h175V285q0-148-73.5-222.5T375-12z"/><glyph glyph-name="V" unicode="V" horiz-adv-x="703" d="M9 666h206l115-351q6-19 11.5-37.5T351 244t6.5-25 2.5-11h2q0 1 3 11.5t7 25.5 9 33.5 11 36.5l110 351h192L446 0H266z"/><glyph glyph-name="W" unicode="W" horiz-adv-x="944" d="M13 666h202l62-272q4-17 7.5-35.5t6.5-36 5.5-32T301 267h2q2 10 5 26t6.5 34.5 7.5 38 8 36.5l61 264h185l60-264q4-17 8-37t7.5-38.5 6-34.5 4.5-25h3q1 9 3 24l6 33q3 18 7 36.5t8 35.5l64 270h180L752 0H576l-71 306q-8 34-15 69t-10 52h-2q-2-8-4.5-22t-6.5-30.5-9-34.5l-8-34L367 0H191z"/><glyph glyph-name="X" unicode="X" horiz-adv-x="656" d="M225 340L23 666h217l97-169 92 169h190L429 343 641 0H426L315 190 205 0H15z"/><glyph glyph-name="Y" unicode="Y" horiz-adv-x="632" d="M225 251L6 666h211l112-239h1l111 239h185L416 251V0H225v251z"/><glyph glyph-name="Z" unicode="Z" horiz-adv-x="578" d="M46 121l258 390H55v155h482V546L278 155h266V0H46v121z"/><glyph glyph-name="bracketleft" unicode="[" horiz-adv-x="369" d="M54 720h288V588H225V-29h117v-132H54v881z"/><glyph glyph-name="backslash" unicode="\" horiz-adv-x="487" d="M-3 720h175l318-881H315z"/><glyph glyph-name="bracketright" unicode="]" horiz-adv-x="369" d="M27-29h117v617H27v132h288v-881H27v132z"/><glyph glyph-name="asciicircum" unicode="^" horiz-adv-x="584" d="M229 666h125l198-378H386l-94 193-94-193H31z"/><glyph glyph-name="underscore" unicode="_" horiz-adv-x="462" d="M-1-68h464v-135H-1v135z"/><glyph glyph-name="grave" unicode="`" horiz-adv-x="500" d="M109 684h221l76-142H253z"/><glyph glyph-name="a" unicode="a" horiz-adv-x="526" d="M179-12q-32 0-60 9T70 24 37 69t-12 63q0 47 21.5 81t57.5 55.5 83.5 31.5 99.5 10h14v15q0 21-13 32t-53 11q-22 0-41.5-5T158 351.5t-27.5-14T112 326L40 432q12 11 32 23.5t47.5 23.5 62 18.5T258 505q117 0 169.5-44.5T480 308V171q0-60 5-101.5T496 0H320q-4 9-6.5 23T310 48q-8-10-20-20.5T261.5 8t-37-14.5T179-12zm62 123q23 0 37 7.5t23 15.5v72h-14q-43 0-69-14t-26-43q0-38 49-38z"/><glyph glyph-name="b" unicode="b" horiz-adv-x="579" d="M283-12q-92 0-149.5 14.5T51 28v692h180V454q17 17 46.5 34t71.5 17q43 0 81-14t66-44.5 44-79T556 251t-21-118-58-82-87-47.5T283-12zm0 137q18 0 33 5.5t26 20 17.5 39T366 252q0 63-18.5 89.5T293 368q-24 0-39.5-10.5T231 339V132q7-2 19-4.5t33-2.5z"/><glyph glyph-name="c" unicode="c" horiz-adv-x="472" d="M301-12q-63 0-114 17T99.5 54.5 43 135 23 245t20.5 110.5T101 437t89 50.5T305 505q60 0 97-11t54-22l-49-119q-15 8-38 14t-55 6q-47 0-74-31t-27-91q0-61 26-95t79-34q39 0 61 8.5t34 13.5l49-116q-9-5-22.5-12T407 3 362-7.5 301-12z"/><glyph glyph-name="d" unicode="d" horiz-adv-x="583" d="M225-13q-96 0-148.5 66.5T24 245q0 59 16.5 107T87 434t71 52.5 89 18.5q40 0 66-10t39-19v244h180V171q0-60 5-101.5T548 0H372q-4 10-7 25.5T361 51q-25-29-56.5-46.5T225-13zm60 138q27 0 43.5 13.5T352 161v184q-10 9-24 16t-36 7q-38 0-58-29.5T214 243q0-60 18.5-89t52.5-29z"/><glyph glyph-name="e" unicode="e" horiz-adv-x="542" d="M300-12Q169-12 96 56T23 248q0 61 21 109t56.5 81 82.5 50 100 17q116 0 173.5-66T514 246q0-26-3-56H216q15-74 103-74 25 0 43.5 2.5T395 125t25 8.5 21 8.5l53-108q-14-8-31-16T423.5 3.5 371-7.5 300-12zm40 318q-1 34-14 55.5T281 383q-59 0-71-77h130z"/><glyph glyph-name="f" unicode="f" horiz-adv-x="403" d="M83 362H15v131h68v33q0 46 13 84t39 65 64 42 88 15q67 0 102-11.5t46-18.5l-40-130q-8 3-24.5 9t-45.5 6q-35 0-49-18.5T262 512v-19h112V362H262V0H83v362z"/><glyph glyph-name="g" unicode="g" horiz-adv-x="559" d="M234-240q-117 0-173.5 34T4-111q0 22 8 39t21.5 30.5 30.5 23T99-1v2Q79 15 65 32T51 78q0 18 6.5 33T74 138t22 21.5 24 15.5v2q-41 21-69.5 57T22 327q0 81 61 129.5T257 505q55 0 97-12h193V383h-62q9-27 9-56 0-81-55.5-129T269 150q-16 0-31 1t-29 3q-9-9-9-21 0-19 29-24t101-8q37-2 74.5-7T473 74t50.5-43.5T543-46q0-43-20.5-78.5t-60.5-61-97.5-40T234-240zm22 113q54 0 83.5 14.5T369-77q0 23-29 28t-92 9q-15 1-28 3t-24 4q-8-8-14-20.5T176-79q0-23 20-35.5t60-12.5zm2 385q30 0 48 17t18 52-18 52.5-48 17.5-47.5-17.5T193 327t17.5-52 47.5-17z"/><glyph glyph-name="h" unicode="h" horiz-adv-x="579" d="M51 720h180V442q10 10 24 21t32 20.5 41 15.5 52 6q42 0 70.5-12.5t46-34.5 25.5-52 8-65V0H350v303q0 30-11.5 42.5T301 358t-44-15.5-26-24.5V0H51v720z"/><glyph glyph-name="i" unicode="i" horiz-adv-x="304" d="M152 535q-46 0-74.5 29.5T49 634t28.5 69 74.5 29 74.5-29 28.5-69-28.5-69.5T152 535zm-91-42h182V0H61v493z"/><glyph glyph-name="j" unicode="j" horiz-adv-x="304" d="M51-236q-47 0-74 5.5T-64-220l31 136q5-2 16-4.5T9-91t25 4 16 14.5 8.5 29T61 4v489h182V-11q0-104-44.5-164.5T51-236zm101 771q-46 0-74.5 29.5T49 634t28.5 69 74.5 29 74.5-29 28.5-69-28.5-69.5T152 535z"/><glyph glyph-name="k" unicode="k" horiz-adv-x="556" d="M51 720h180V319l127 174h192L384 271 550 0H345L231 198V0H51v720z"/><glyph glyph-name="l" unicode="l" horiz-adv-x="302" d="M61 720h180V0H61v720z"/><glyph glyph-name="m" unicode="m" horiz-adv-x="846" d="M51 493h176v-55q10 12 23.5 23.5t31 21.5 39.5 16 51 6q51 0 81.5-19.5T498 431q33 38 68.5 56t88.5 18q40 0 67.5-12.5t44-34.5 23.5-52 7-65V0H617v303q0 30-9 42.5T576 358q-21 0-35.5-12.5T514 318V0H334v303q0 30-10.5 42.5T293 358q-26 0-40-14.5T231 320V0H51v493z"/><glyph glyph-name="n" unicode="n" horiz-adv-x="579" d="M51 493h176v-56q11 12 25 24t33 22 42.5 16 52.5 6q42 0 70.5-12.5t46-34.5 25.5-52 8-65V0H350v303q0 30-11.5 42.5T301 358t-44-15.5-26-24.5V0H51v493z"/><glyph glyph-name="o" unicode="o" horiz-adv-x="568" d="M284-12q-66 0-115 21T87.5 65.5t-48.5 82T23 244q0 51 16 98t48.5 83 81.5 58 115 22 115-21 81.5-56 48.5-81 16-97q0-50-16-97t-48-83.5-81.5-59T284-12zm3 130q43 0 55 32.5t12 93.5q0 62-14.5 97.5T282 377t-56-33-13-94 15.5-96.5T287 118z"/><glyph glyph-name="p" unicode="p" horiz-adv-x="583" d="M51 493h176v-50q21 26 52 44t80 18q96 0 148-66.5T559 247q0-59-16.5-107t-46-81.5-70.5-52T336-12q-40 0-66 9.5T231 17v-236H51v712zm240-370q38 0 58 30t20 95q0 61-18.5 90T298 367q-14 0-24.5-4t-19-10-14.5-12-9-10V147q10-9 24-16.5t36-7.5z"/><glyph glyph-name="q" unicode="q" horiz-adv-x="579" d="M352 39q-19-20-47.5-35.5T234-12q-43 0-81 14T87 46.5t-44 79T27 242t21 117.5 58 82 87 48T300 505q94 0 150.5-12.5T532 470v-689H352V39zm-62 84q24 0 39.5 11t22.5 19v209q-7 2-19.5 4t-30.5 2-34-6-27-20.5-17.5-39T217 240q0-63 18.5-90t54.5-27z"/><glyph glyph-name="r" unicode="r" horiz-adv-x="426" d="M51 493h180v-59q17 29 46.5 50t73.5 21q31 0 49-5t29-11l-42-152q-8 5-22 9.5t-37 4.5q-37 0-60.5-17.5T231 296V0H51v493z"/><glyph glyph-name="s" unicode="s" horiz-adv-x="430" d="M203-12Q128-12 82.5 4T14 35l55 122q7-5 20-12t29-13.5 34.5-11T190 116q66 0 66 25 0 9-11.5 14.5t-31 11.5-44 13.5T119 202q-46 24-68 56.5T29 342q0 39 15 69.5t42 51 65 31.5 83 11q66 0 106.5-11.5T401 471l-55-120q-15 8-42.5 17t-59.5 9-44.5-7-12.5-18q0-9 8.5-14t23-9.5 34-10T293 305q28-11 50.5-24t38.5-30.5 24-40.5 8-54q0-86-55.5-127T203-12z"/><glyph glyph-name="t" unicode="t" horiz-adv-x="417" d="M272-12q-53 0-88 12.5t-55.5 35-29 54T91 160v202H15v131h76v143h179V493h109V362H270V200q0-36 9.5-51.5T313 133q22 0 38.5 5.5T376 148l35-133q-19-9-53.5-18T272-12z"/><glyph glyph-name="u" unicode="u" horiz-adv-x="579" d="M199-12Q157-12 128.5.5T82.5 35 57 87t-8 65v341h180V190q0-30 11.5-42.5T278 135t44 15.5 26 24.5v318h180V171q0-60 5-101.5T544 0H368q-4 10-7.5 29T356 61q-22-27-60-50t-97-23z"/><glyph glyph-name="v" unicode="v" horiz-adv-x="543" d="M6 493h193l74-274h2l79 274h183L354 0H185z"/><glyph glyph-name="w" unicode="w" horiz-adv-x="778" d="M6 493h192l52-269h2l60 269h164l60-271h2l55 271h178L637 0H475l-86 289h-2L303 0H141z"/><glyph glyph-name="x" unicode="x" horiz-adv-x="550" d="M178 253L15 493h202l66-102 54 102h183L368 260 539 0H337l-74 122L196 0H11z"/><glyph glyph-name="y" unicode="y" horiz-adv-x="554" d="M95-236q-41 0-65.5 4.5T-4-224L22-84q5-2 17.5-4.5T78-91t43.5 5T150-72t18 21 12 26l15 41L11 493h189l88-273h4l73 273h183L349-42q-19-51-41-87.5T257-190t-68.5-35T95-236z"/><glyph glyph-name="z" unicode="z" horiz-adv-x="485" d="M36 93l188 267H44v133h398v-99L259 133h184V0H36v93z"/><glyph glyph-name="braceleft" unicode="{" horiz-adv-x="443" d="M268-161q-23 0-46 8.5t-41 26-29.5 43T140-24v147q0 45-25.5 68.5T24 217v136q65 2 90.5 24t25.5 70v137q0 35 11 61t29.5 42.5 42 24.5 48.5 8h145V588h-59q-28 0-37-15.5t-9-44.5V406q0-54-23.5-80.5T228 288v-2q37-13 60-41t23-84V31q0-33 7.5-46.5T357-29h59v-132H268z"/><glyph glyph-name="bar" unicode="|" horiz-adv-x="288" d="M63 750h162V-250H63V750z"/><glyph glyph-name="braceright" unicode="}" horiz-adv-x="443" d="M27-29h59q28 0 37 15.5t9 44.5v133q0 54 23.5 80.5T215 282v2q-37 13-60 41t-23 84v119q0 33-7.5 46.5T86 588H27v132h148q23 0 46-8.5t41-26 29.5-43T303 583V447q0-45 25.5-68.5T419 353V217q-65-2-90.5-24T303 123V-25q0-35-11-61t-29.5-42.5-42-24.5-48.5-8H27v132z"/><glyph glyph-name="asciitilde" unicode="~" horiz-adv-x="582" d="M383 154q-34 0-56.5 7.5t-41.5 17-40 17-52 7.5q-19 0-33.5-4.5t-25-11-18-13.5-12.5-12L24 267q9 10 24.5 24T86 318t50 21.5 63 8.5q34 0 56.5-7.5t41.5-17 40-17 52-7.5q35 0 57.5 15t31.5 26l80-105q-9-11-24.5-24.5T496 184t-50.5-21.5T383 154z"/><glyph glyph-name="uni00A0" horiz-adv-x="170"/><glyph glyph-name="exclamdown" unicode="¡" horiz-adv-x="316" d="M163 302q-48 0-77 29.5T57 403q0 21 7.5 39.5T86 475t33.5 22 43.5 8 43.5-8 33.5-22 21.5-32.5T269 403q0-42-29-71.5T163 302zm-72-54h144l32-420H59z"/><glyph glyph-name="sterling" unicode="£" horiz-adv-x="548" d="M62 373h81q-5 23-8 47.5t-3 53.5q0 46 17 84t49 64.5 77 41T377 678q61 0 100-12.5t62-26.5l-69-123q-13 7-31 14t-47 7q-35 0-53.5-19T320 457q0-26 3-46t7-38h142V247H347q-3-35-18.5-62.5T294 140h214V0H71v113q44 19 66 54.5t24 79.5H62v126z"/><glyph glyph-name="dieresis" unicode="¨" horiz-adv-x="500" d="M136 545q-40 0-65 25.5T46 631t25 60 65 25 65-25 25-60-25-60.5-65-25.5zm228 0q-40 0-65 25.5T274 631t25 60 65 25 65-25 25-60-25-60.5-65-25.5z"/><glyph glyph-name="copyright" unicode="©" horiz-adv-x="813" d="M412 142q-45 0-84.5 15.5t-68 44-45 68.5-16.5 89q0 47 17 87t46 69 69 45 85 16q30 0 55-6t44-14.5 33-18.5 22-18l-66-96q-11 8-30.5 19.5T421 454q-33 0-58-23.5T338 361q0-47 23.5-74.5T423 259q16 0 30 5t25 11.5 19 14 14 13.5l65-88q-7-8-21-20.5t-35-24-48-20-60-8.5zm-6-156q-77 0-144.5 29.5t-118 80-80 118.5T34 359t29.5 145 80 118.5 118 80T406 732t145-29.5 118.5-80 80-118.5T779 359t-29.5-145-80-118.5-118.5-80T406-14zm0 96q59 0 108.5 19t85.5 55 56 87.5T676 359t-20 115-56 87-85.5 55.5T406 636t-108.5-19.5T212 561t-56-87-20-115 20-115.5 56-87.5 85.5-55T406 82z"/><glyph glyph-name="ordfeminine" unicode="ª" horiz-adv-x="390" d="M131 310q-50 0-83 25t-33 77q0 33 14.5 56.5T69 507q26 17 62 24t83 7v9q0 14-8.5 22t-36.5 8q-30 0-54.5-11.5T79 546l-55 79q19 17 59.5 35T186 678q89 0 127-32t38-109v-97q0-42 4-70.5t11-50.5H230q-2 5-4.5 14.5T222 351q-13-14-35.5-27.5T131 310zm43 91q16 0 25 4t15 9v48q-25 0-39-2.5T152 449q-11-9-11-23 0-25 33-25z"/><glyph glyph-name="uni00AD" unicode="­" horiz-adv-x="346" d="M48 349h250V207H48v142z"/><glyph glyph-name="registered" unicode="®" horiz-adv-x="813" d="M257 561h149q76 0 116.5-29t40.5-89q0-24-6.5-42.5t-17.5-31-24.5-21T487 336q5-4 17.5-18.5T533 273l53-101H464l-56 111q-11 22-18 28t-18 6V172H257v389zM406-14q-77 0-144.5 29.5t-118 80-80 118.5T34 359t29.5 145 80 118.5 118 80T406 732t145-29.5 118.5-80 80-118.5T779 359t-29.5-145-80-118.5-118.5-80T406-14zm0 96q59 0 108.5 19t85.5 55 56 87.5T676 359t-20 115-56 87-85.5 55.5T406 636t-108.5-19.5T212 561t-56-87-20-115 20-115.5 56-87.5 85.5-55T406 82zm-2 309q23 0 34.5 12t11.5 32q0 22-11.5 33T400 479h-28v-88h32z"/><glyph glyph-name="macron" unicode="¯" horiz-adv-x="500" d="M104 674h291V552H104v122z"/><glyph glyph-name="degree" unicode="°" horiz-adv-x="346" d="M173 380q-31 0-58.5 11.5T66 423t-33 47-12 59q0 31 12 58.5T66 635t48.5 31.5T173 678t58.5-11.5T280 635t33-47.5 12-58.5q0-32-12-59t-32.5-47-48.5-31.5-59-11.5zm0 94q23 0 36.5 15t13.5 40-13.5 40-36.5 15-36.5-15-13.5-40 13.5-40 36.5-15z"/><glyph glyph-name="plusminus" unicode="±" horiz-adv-x="600" d="M225 194H65v134h160v162h149V328h160V194H374V30H225v164zM65-47h468v-134H65v134z"/><glyph glyph-name="twosuperior" unicode="²" horiz-adv-x="350" d="M18 396q31 24 57.5 43.5t46 37.5 31 34 11.5 33q0 14-8.5 20t-19.5 6q-17 0-36.5-8.5T64 539L3 623q25 21 62 35.5t88 14.5q75 0 115-32.5t40-81.5q0-21-9-39.5T275.5 485t-33-30.5T206 426q9 2 24.5 2.5t29.5.5h60V327H18v69z"/><glyph glyph-name="threesuperior" unicode="³" horiz-adv-x="335" d="M114 321q-34 0-59 3.5T16 333l24 97q12-5 31.5-8.5T110 418q18 0 32.5 3t14.5 13q0 21-77 23v74q38 2 54 10t16 18q0 16-24 16-17 0-34.5-5T65 560l-44 83q21 11 56 20.5t80 9.5q59 0 95.5-21.5T289 592q0-18-7.5-31T263 539t-24-14.5-24-8.5v-1q11-2 26-6.5t28.5-13.5 23-24 9.5-37q0-51-48.5-82T114 321z"/><glyph glyph-name="acute" unicode="´" horiz-adv-x="500" d="M218 684h221L295 542H142z"/><glyph glyph-name="paragraph" unicode="¶" horiz-adv-x="677" d="M230 234q-44 0-83 15.5T79 293t-45.5 67.5T17 449t16.5 89T79 606.5t68 44 83 15.5h437V529h-71v-706H442v706h-57v-706H230v411z"/><glyph glyph-name="periodcentered" unicode="·" horiz-adv-x="288" d="M144 184q-23 0-43 8t-35 22.5T42.5 248 34 290q0 22 8.5 41T66 364.5t35 22.5 43 8 43-8 35-22.5 23.5-33.5 8.5-41q0-23-8.5-42T222 214.5 187 192t-43-8z"/><glyph glyph-name="cedilla" unicode="¸" horiz-adv-x="490" d="M232-238q-35 0-60 6t-36 11l21 73q8-4 21-7.5t30-3.5q20 0 32.5 8t12.5 23q0 12-6.5 19T230-98t-23 5-25 0l36 98h97l-19-52q32-8 52.5-31t20.5-59q0-43-37-72t-100-29z"/><glyph glyph-name="quoteleft" unicode="‘" horiz-adv-x="244" d="M121 342q-48 0-73.5 31T22 452q0 29 11 59.5T63.5 573t47 61.5T170 694l60-54q-23-24-38-46.5T177 542q0-16 6-27.5t13.5-23 13.5-26 6-35.5q0-39-28-63.5T121 342z"/><glyph glyph-name="quoteright" unicode="’" horiz-adv-x="244" d="M123 678q48 0 73.5-31t25.5-79q0-29-11-59.5T180.5 447t-47-61.5T74 326l-60 54q23 24 38 46.5T67 478q0 16-6 27.5t-13.5 23-13.5 26-6 35.5q0 39 28 63.5t67 24.5z"/><glyph glyph-name="quotesinglbase" unicode="‚" horiz-adv-x="244" d="M123 184q48 0 73.5-31T222 74q0-29-11-59.5T180.5-47t-47-61.5T74-168l-60 54q23 24 38 46.5T67-16q0 16-6 27.5t-13.5 23-13.5 26T28 96q0 39 28 63.5t67 24.5z"/><glyph glyph-name="quotedblleft" unicode="“" horiz-adv-x="492" d="M121 342q-48 0-73.5 31T22 452q0 29 11 59.5T63.5 573t47 61.5T170 694l60-54q-23-24-38-46.5T177 542q0-16 6-27.5t13.5-23 13.5-26 6-35.5q0-39-28-63.5T121 342zm248 0q-48 0-73.5 31T270 452q0 29 11 59.5t30.5 61.5 47 61.5T418 694l60-54q-23-24-38-46.5T425 542q0-16 6-27.5t13.5-23 13.5-26 6-35.5q0-39-28-63.5T369 342z"/><glyph glyph-name="quotedblright" unicode="”" horiz-adv-x="492" d="M123 678q48 0 73.5-31t25.5-79q0-29-11-59.5T180.5 447t-47-61.5T74 326l-60 54q23 24 38 46.5T67 478q0 16-6 27.5t-13.5 23-13.5 26-6 35.5q0 39 28 63.5t67 24.5zm248 0q48 0 73.5-31t25.5-79q0-29-11-59.5T428.5 447t-47-61.5T322 326l-60 54q23 24 38 46.5t15 51.5q0 16-6 27.5t-13.5 23-13.5 26-6 35.5q0 39 28 63.5t67 24.5z"/><glyph glyph-name="quotedblbase" unicode="„" horiz-adv-x="492" d="M123 185q48 0 73.5-31T222 75q0-29-11-59.5T180.5-46t-47-61.5T74-167l-60 54q23 24 38 46.5T67-15q0 16-6 27.5t-13.5 23-13.5 26T28 97q0 39 28 63.5t67 24.5zm248 0q48 0 73.5-31T470 75q0-29-11-59.5T428.5-46t-47-61.5T322-167l-60 54q23 24 38 46.5T315-15q0 16-6 27.5t-13.5 23-13.5 26-6 35.5q0 39 28 63.5t67 24.5z"/><glyph glyph-name="dagger" unicode="†" horiz-adv-x="570" d="M182 236l22 114-64-10H30v153h110l64-10-15 100v137h192V583l-15-100 64 10h110V340H430l-64 10 21-114-45-406H228z"/><glyph glyph-name="daggerdbl" unicode="‡" horiz-adv-x="590" d="M189-66l15 100-64-10H30v153h110l64-10-20 92 20 91-64-10H30v153h110l64-10-15 100v137h192V583l-15-100 64 10h110V340H430l-64 10 19-91-19-92 64 10h110V24H430l-64 10 15-100v-104H189v104z"/><glyph glyph-name="bullet" unicode="•" horiz-adv-x="498" d="M249 71q-45 0-84.5 17t-69 46.5-47 68.5T31 287t17.5 85 47 69.5 69 46.5 84.5 17 85-17 69.5-46.5T450 372t17-85-17-84-46.5-68.5T334 88t-85-17z"/><glyph glyph-name="ellipsis" unicode="…" horiz-adv-x="868" d="M167-11q-23 0-43 8T89 19.5 65.5 53 57 95q0 22 8.5 41T89 169.5t35 22.5 43 8 43-8 35-22.5 23.5-33.5 8.5-41q0-23-8.5-42T245 19.5 210-3t-43-8zm267 0q-23 0-43 8t-35 22.5T332.5 53 324 95q0 22 8.5 41t23.5 33.5 35 22.5 43 8 43-8 35-22.5 23.5-33.5 8.5-41q0-23-8.5-42T512 19.5 477-3t-43-8zm267 0q-23 0-43 8t-35 22.5T599.5 53 591 95q0 22 8.5 41t23.5 33.5 35 22.5 43 8 43-8 35-22.5 23.5-33.5 8.5-41q0-23-8.5-42T779 19.5 744-3t-43-8z"/></font>
</defs>
</svg>
